# MagicaVoxel @ Ephtracy

# group
o 

# material
mtllib Bote_basuraA.mtl
usemtl palette

# normals
vn -1 0 0
vn 1 0 0
vn 0 0 1
vn 0 0 -1
vn 0 -1 0
vn 0 1 0

# texcoords
vt 0.802734 0.5
vt 0.935547 0.5
vt 0.958984 0.5
vt 0.982422 0.5
vt 0.990234 0.5

# verts
v -0.9 1.7 0.8
v -0.9 1.7 -0.4
v -0.9 2 0.8
v -0.9 2 -0.4
v -0.8 0.2 0.6
v -0.8 0.2 -0.2
v -0.8 1.6 0.6
v -0.8 1.6 -0.2
v -0.7 0 0.8
v -0.7 0 -0.4
v -0.7 0.2 0.6
v -0.7 0.2 -0.2
v -0.7 1.6 0.6
v -0.7 1.6 -0.2
v -0.7 1.7 1
v -0.7 1.7 0.8
v -0.7 1.7 -0.4
v -0.7 1.7 -0.6
v -0.7 2 1
v -0.7 2 0.8
v -0.7 2 -0.4
v -0.7 2 -0.6
v -0.7 2.1 0.8
v -0.7 2.1 -0.4
v -0.5 0.2 0.9
v -0.5 0.2 0.8
v -0.5 0.2 -0.4
v -0.5 0.2 -0.5
v -0.5 1.6 0.9
v -0.5 1.6 0.8
v -0.5 1.6 -0.4
v -0.5 1.6 -0.5
v -0.3 2.1 0.4
v -0.3 2.1 -1.19209e-07
v -0.3 2.3 0.4
v -0.3 2.3 -1.19209e-07
v -0.2 0.7 -0.5
v -0.2 0.7 -0.6
v -0.2 0.9 -0.5
v -0.2 0.9 -0.6
v -0.2 1 -0.5
v -0.2 1 -0.6
v -0.2 1.2 -0.5
v -0.2 1.2 -0.6
v -0.1 0.6 -0.5
v -0.1 0.6 -0.6
v -0.1 0.7 -0.5
v -0.1 0.7 -0.6
v -0.1 0.9 -0.5
v -0.1 0.9 -0.6
v -0.1 1 -0.5
v -0.1 1 -0.6
v -0.1 1.2 -0.5
v -0.1 1.2 -0.6
v -0.1 1.3 -0.5
v -0.1 1.3 -0.6
v 0.2 0.7 -0.5
v 0.2 0.7 -0.6
v 0.2 0.9 -0.5
v 0.2 0.9 -0.6
v 0.2 1 -0.5
v 0.2 1 -0.6
v 0.2 1.2 -0.5
v 0.2 1.2 -0.6
v 0.3 2.1 0.4
v 0.3 2.1 -1.19209e-07
v 0.3 2.2 0.4
v 0.3 2.2 -1.19209e-07
v 1 1.3 0.4
v 1 1.3 -1.19209e-07
v 1 1.5 0.4
v 1 1.5 -1.19209e-07
v -0.2 2.1 0.4
v -0.2 2.1 -1.19209e-07
v -0.2 2.2 0.4
v -0.2 2.2 -1.19209e-07
v -0.1 0.7 -0.5
v -0.1 0.7 -0.6
v -0.1 0.9 -0.5
v -0.1 0.9 -0.6
v -0.1 1 -0.5
v -0.1 1 -0.6
v -0.1 1.2 -0.5
v -0.1 1.2 -0.6
v 0.3 0.6 -0.5
v 0.3 0.6 -0.6
v 0.3 1.3 -0.5
v 0.3 1.3 -0.6
v 0.4 2.1 0.4
v 0.4 2.1 -1.19209e-07
v 0.4 2.3 0.4
v 0.4 2.3 -1.19209e-07
v 0.6 0.2 0.9
v 0.6 0.2 0.8
v 0.6 0.2 -0.4
v 0.6 0.2 -0.5
v 0.6 1.6 0.9
v 0.6 1.6 0.8
v 0.6 1.6 -0.4
v 0.6 1.6 -0.5
v 0.8 0 0.8
v 0.8 0 -0.4
v 0.8 0.2 0.6
v 0.8 0.2 -0.2
v 0.8 1.6 0.6
v 0.8 1.6 -0.2
v 0.8 1.7 1
v 0.8 1.7 0.8
v 0.8 1.7 -0.4
v 0.8 1.7 -0.6
v 0.8 2 1
v 0.8 2 0.8
v 0.8 2 -0.4
v 0.8 2 -0.6
v 0.8 2.1 0.8
v 0.8 2.1 -0.4
v 0.9 0.2 0.6
v 0.9 0.2 -0.2
v 0.9 1.3 0.5
v 0.9 1.3 0.4
v 0.9 1.3 -1.19209e-07
v 0.9 1.3 -0.1
v 0.9 1.5 0.5
v 0.9 1.5 0.4
v 0.9 1.5 -1.19209e-07
v 0.9 1.5 -0.1
v 0.9 1.6 0.6
v 0.9 1.6 -0.2
v 1 1.7 0.8
v 1 1.7 -0.4
v 1 2 0.8
v 1 2 -0.4
v 1.1 1.3 0.5
v 1.1 1.3 -0.1
v 1.1 1.5 0.5
v 1.1 1.5 -0.1
v -0.7 1.7 1
v -0.7 2 1
v 0.8 1.7 1
v 0.8 2 1
v -0.5 0.2 0.9
v -0.5 1.6 0.9
v 0.6 0.2 0.9
v 0.6 1.6 0.9
v -0.9 1.7 0.8
v -0.9 2 0.8
v -0.7 0 0.8
v -0.7 1.7 0.8
v -0.7 2 0.8
v -0.7 2.1 0.8
v -0.5 0.2 0.8
v -0.5 1.6 0.8
v 0.6 0.2 0.8
v 0.6 1.6 0.8
v 0.8 0 0.8
v 0.8 1.7 0.8
v 0.8 2 0.8
v 0.8 2.1 0.8
v 1 1.7 0.8
v 1 2 0.8
v -0.8 0.2 0.6
v -0.8 1.6 0.6
v -0.7 0.2 0.6
v -0.7 1.6 0.6
v 0.8 0.2 0.6
v 0.8 1.6 0.6
v 0.9 0.2 0.6
v 0.9 1.6 0.6
v 0.9 1.3 0.5
v 0.9 1.5 0.5
v 1.1 1.3 0.5
v 1.1 1.5 0.5
v -0.3 2.1 0.4
v -0.3 2.3 0.4
v -0.2 2.1 0.4
v -0.2 2.2 0.4
v 0.3 2.1 0.4
v 0.3 2.2 0.4
v 0.4 2.1 0.4
v 0.4 2.3 0.4
v 0.9 1.3 -1.19209e-07
v 0.9 1.5 -1.19209e-07
v 1 1.3 -1.19209e-07
v 1 1.5 -1.19209e-07
v 0.9 1.3 0.4
v 0.9 1.5 0.4
v 1 1.3 0.4
v 1 1.5 0.4
v -0.3 2.1 -1.19209e-07
v -0.3 2.3 -1.19209e-07
v -0.2 2.1 -1.19209e-07
v -0.2 2.2 -1.19209e-07
v 0.3 2.1 -1.19209e-07
v 0.3 2.2 -1.19209e-07
v 0.4 2.1 -1.19209e-07
v 0.4 2.3 -1.19209e-07
v 0.9 1.3 -0.1
v 0.9 1.5 -0.1
v 1.1 1.3 -0.1
v 1.1 1.5 -0.1
v -0.8 0.2 -0.2
v -0.8 1.6 -0.2
v -0.7 0.2 -0.2
v -0.7 1.6 -0.2
v 0.8 0.2 -0.2
v 0.8 1.6 -0.2
v 0.9 0.2 -0.2
v 0.9 1.6 -0.2
v -0.9 1.7 -0.4
v -0.9 2 -0.4
v -0.7 0 -0.4
v -0.7 1.7 -0.4
v -0.7 2 -0.4
v -0.7 2.1 -0.4
v -0.5 0.2 -0.4
v -0.5 1.6 -0.4
v 0.6 0.2 -0.4
v 0.6 1.6 -0.4
v 0.8 0 -0.4
v 0.8 1.7 -0.4
v 0.8 2 -0.4
v 0.8 2.1 -0.4
v 1 1.7 -0.4
v 1 2 -0.4
v -0.5 0.2 -0.5
v -0.5 1.6 -0.5
v -0.2 0.7 -0.5
v -0.2 0.9 -0.5
v -0.2 1 -0.5
v -0.2 1.2 -0.5
v -0.1 0.6 -0.5
v -0.1 0.7 -0.5
v -0.1 0.9 -0.5
v -0.1 1 -0.5
v -0.1 1.2 -0.5
v -0.1 1.3 -0.5
v 0.2 0.7 -0.5
v 0.2 0.9 -0.5
v 0.2 1 -0.5
v 0.2 1.2 -0.5
v 0.3 0.6 -0.5
v 0.3 1.3 -0.5
v 0.6 0.2 -0.5
v 0.6 1.6 -0.5
v -0.7 1.7 -0.6
v -0.7 2 -0.6
v -0.2 0.7 -0.6
v -0.2 0.9 -0.6
v -0.2 1 -0.6
v -0.2 1.2 -0.6
v -0.1 0.6 -0.6
v -0.1 0.7 -0.6
v -0.1 0.9 -0.6
v -0.1 1 -0.6
v -0.1 1.2 -0.6
v -0.1 1.3 -0.6
v 0.2 0.7 -0.6
v 0.2 0.9 -0.6
v 0.2 1 -0.6
v 0.2 1.2 -0.6
v 0.3 0.6 -0.6
v 0.3 1.3 -0.6
v 0.8 1.7 -0.6
v 0.8 2 -0.6
v -0.7 0 0.8
v 0.8 0 0.8
v -0.7 0 -0.4
v 0.8 0 -0.4
v -0.5 0.2 0.9
v 0.6 0.2 0.9
v -0.5 0.2 0.8
v 0.6 0.2 0.8
v -0.8 0.2 0.6
v -0.7 0.2 0.6
v 0.8 0.2 0.6
v 0.9 0.2 0.6
v -0.8 0.2 -0.2
v -0.7 0.2 -0.2
v 0.8 0.2 -0.2
v 0.9 0.2 -0.2
v -0.5 0.2 -0.4
v 0.6 0.2 -0.4
v -0.5 0.2 -0.5
v 0.6 0.2 -0.5
v -0.1 0.6 -0.5
v 0.3 0.6 -0.5
v -0.1 0.6 -0.6
v 0.3 0.6 -0.6
v -0.2 0.7 -0.5
v -0.1 0.7 -0.5
v -0.2 0.7 -0.6
v -0.1 0.7 -0.6
v -0.1 0.9 -0.5
v 0.2 0.9 -0.5
v -0.1 0.9 -0.6
v 0.2 0.9 -0.6
v -0.2 1 -0.5
v -0.1 1 -0.5
v -0.2 1 -0.6
v -0.1 1 -0.6
v -0.1 1.2 -0.5
v 0.2 1.2 -0.5
v -0.1 1.2 -0.6
v 0.2 1.2 -0.6
v 0.9 1.3 0.5
v 1.1 1.3 0.5
v 0.9 1.3 0.4
v 1 1.3 0.4
v 0.9 1.3 -1.19209e-07
v 1 1.3 -1.19209e-07
v 0.9 1.3 -0.1
v 1.1 1.3 -0.1
v -0.7 1.7 1
v 0.8 1.7 1
v -0.9 1.7 0.8
v -0.7 1.7 0.8
v 0.8 1.7 0.8
v 1 1.7 0.8
v -0.9 1.7 -0.4
v -0.7 1.7 -0.4
v 0.8 1.7 -0.4
v 1 1.7 -0.4
v -0.7 1.7 -0.6
v 0.8 1.7 -0.6
v -0.2 2.2 0.4
v 0.3 2.2 0.4
v -0.2 2.2 -1.19209e-07
v 0.3 2.2 -1.19209e-07
v -0.1 0.7 -0.5
v 0.2 0.7 -0.5
v -0.1 0.7 -0.6
v 0.2 0.7 -0.6
v -0.2 0.9 -0.5
v -0.1 0.9 -0.5
v -0.2 0.9 -0.6
v -0.1 0.9 -0.6
v -0.1 1 -0.5
v 0.2 1 -0.5
v -0.1 1 -0.6
v 0.2 1 -0.6
v -0.2 1.2 -0.5
v -0.1 1.2 -0.5
v -0.2 1.2 -0.6
v -0.1 1.2 -0.6
v -0.1 1.3 -0.5
v 0.3 1.3 -0.5
v -0.1 1.3 -0.6
v 0.3 1.3 -0.6
v 0.9 1.5 0.5
v 1.1 1.5 0.5
v 0.9 1.5 0.4
v 1 1.5 0.4
v 0.9 1.5 -1.19209e-07
v 1 1.5 -1.19209e-07
v 0.9 1.5 -0.1
v 1.1 1.5 -0.1
v -0.5 1.6 0.9
v 0.6 1.6 0.9
v -0.5 1.6 0.8
v 0.6 1.6 0.8
v -0.8 1.6 0.6
v -0.7 1.6 0.6
v 0.8 1.6 0.6
v 0.9 1.6 0.6
v -0.8 1.6 -0.2
v -0.7 1.6 -0.2
v 0.8 1.6 -0.2
v 0.9 1.6 -0.2
v -0.5 1.6 -0.4
v 0.6 1.6 -0.4
v -0.5 1.6 -0.5
v 0.6 1.6 -0.5
v -0.7 2 1
v 0.8 2 1
v -0.9 2 0.8
v -0.7 2 0.8
v 0.8 2 0.8
v 1 2 0.8
v -0.9 2 -0.4
v -0.7 2 -0.4
v 0.8 2 -0.4
v 1 2 -0.4
v -0.7 2 -0.6
v 0.8 2 -0.6
v -0.7 2.1 0.8
v 0.8 2.1 0.8
v -0.3 2.1 0.4
v -0.2 2.1 0.4
v 0.3 2.1 0.4
v 0.4 2.1 0.4
v -0.3 2.1 -1.19209e-07
v -0.2 2.1 -1.19209e-07
v 0.3 2.1 -1.19209e-07
v 0.4 2.1 -1.19209e-07
v -0.7 2.1 -0.4
v 0.8 2.1 -0.4
v -0.3 2.3 0.4
v 0.4 2.3 0.4
v -0.3 2.3 -1.19209e-07
v 0.4 2.3 -1.19209e-07

# faces
f 3/2/1 2/2/1 1/2/1
f 4/2/1 2/2/1 3/2/1
f 7/1/1 6/1/1 5/1/1
f 8/1/1 6/1/1 7/1/1
f 11/2/1 10/2/1 9/2/1
f 12/2/1 10/2/1 11/2/1
f 13/2/1 11/2/1 9/2/1
f 14/2/1 10/2/1 12/2/1
f 16/2/1 13/2/1 9/2/1
f 16/2/1 14/2/1 13/2/1
f 17/2/1 10/2/1 14/2/1
f 17/2/1 14/2/1 16/2/1
f 19/2/1 16/2/1 15/2/1
f 20/2/1 16/2/1 19/2/1
f 21/2/1 18/2/1 17/2/1
f 22/2/1 18/2/1 21/2/1
f 23/1/1 21/1/1 20/1/1
f 24/1/1 21/1/1 23/1/1
f 29/1/1 26/1/1 25/1/1
f 30/1/1 26/1/1 29/1/1
f 31/1/1 28/1/1 27/1/1
f 32/1/1 28/1/1 31/1/1
f 35/5/1 34/5/1 33/5/1
f 36/5/1 34/5/1 35/5/1
f 39/3/1 38/3/1 37/3/1
f 40/3/1 38/3/1 39/3/1
f 43/3/1 42/3/1 41/3/1
f 44/3/1 42/3/1 43/3/1
f 47/3/1 46/3/1 45/3/1
f 48/3/1 46/3/1 47/3/1
f 51/3/1 50/3/1 49/3/1
f 52/3/1 50/3/1 51/3/1
f 55/3/1 54/3/1 53/3/1
f 56/3/1 54/3/1 55/3/1
f 59/3/1 58/3/1 57/3/1
f 60/3/1 58/3/1 59/3/1
f 63/3/1 62/3/1 61/3/1
f 64/3/1 62/3/1 63/3/1
f 67/5/1 66/5/1 65/5/1
f 68/5/1 66/5/1 67/5/1
f 71/5/1 70/5/1 69/5/1
f 72/5/1 70/5/1 71/5/1
f 73/5/2 74/5/2 75/5/2
f 75/5/2 74/5/2 76/5/2
f 77/3/2 78/3/2 79/3/2
f 79/3/2 78/3/2 80/3/2
f 81/3/2 82/3/2 83/3/2
f 83/3/2 82/3/2 84/3/2
f 85/3/2 86/3/2 87/3/2
f 87/3/2 86/3/2 88/3/2
f 89/5/2 90/5/2 91/5/2
f 91/5/2 90/5/2 92/5/2
f 93/1/2 94/1/2 97/1/2
f 97/1/2 94/1/2 98/1/2
f 95/1/2 96/1/2 99/1/2
f 99/1/2 96/1/2 100/1/2
f 101/2/2 102/2/2 103/2/2
f 103/2/2 102/2/2 104/2/2
f 101/2/2 103/2/2 105/2/2
f 104/2/2 102/2/2 106/2/2
f 101/2/2 105/2/2 108/2/2
f 105/2/2 106/2/2 108/2/2
f 106/2/2 102/2/2 109/2/2
f 108/2/2 106/2/2 109/2/2
f 107/2/2 108/2/2 111/2/2
f 111/2/2 108/2/2 112/2/2
f 109/2/2 110/2/2 113/2/2
f 113/2/2 110/2/2 114/2/2
f 112/1/2 113/1/2 115/1/2
f 115/1/2 113/1/2 116/1/2
f 117/1/2 118/1/2 119/1/2
f 119/1/2 118/1/2 120/1/2
f 120/1/2 118/1/2 121/1/2
f 121/1/2 118/1/2 122/1/2
f 117/1/2 119/1/2 123/1/2
f 120/1/2 121/1/2 124/1/2
f 124/1/2 121/1/2 125/1/2
f 122/1/2 118/1/2 126/1/2
f 124/1/2 125/1/2 127/1/2
f 125/1/2 126/1/2 127/1/2
f 117/1/2 123/1/2 127/1/2
f 123/1/2 124/1/2 127/1/2
f 126/1/2 118/1/2 128/1/2
f 127/1/2 126/1/2 128/1/2
f 129/2/2 130/2/2 131/2/2
f 131/2/2 130/2/2 132/2/2
f 133/5/2 134/5/2 135/5/2
f 135/5/2 134/5/2 136/5/2
f 139/2/3 138/2/3 137/2/3
f 140/2/3 138/2/3 139/2/3
f 143/1/3 142/1/3 141/1/3
f 144/1/3 142/1/3 143/1/3
f 148/2/3 146/2/3 145/2/3
f 149/2/3 146/2/3 148/2/3
f 151/2/3 148/2/3 147/2/3
f 152/2/3 148/2/3 151/2/3
f 153/2/3 151/2/3 147/2/3
f 154/2/3 148/2/3 152/2/3
f 155/2/3 153/2/3 147/2/3
f 155/2/3 154/2/3 153/2/3
f 156/2/3 148/2/3 154/2/3
f 156/2/3 154/2/3 155/2/3
f 157/1/3 150/1/3 149/1/3
f 158/1/3 150/1/3 157/1/3
f 159/2/3 157/2/3 156/2/3
f 160/2/3 157/2/3 159/2/3
f 163/1/3 162/1/3 161/1/3
f 164/1/3 162/1/3 163/1/3
f 167/1/3 166/1/3 165/1/3
f 168/1/3 166/1/3 167/1/3
f 171/5/3 170/5/3 169/5/3
f 172/5/3 170/5/3 171/5/3
f 175/5/3 174/5/3 173/5/3
f 176/5/3 174/5/3 175/5/3
f 178/5/3 174/5/3 176/5/3
f 179/5/3 178/5/3 177/5/3
f 180/5/3 174/5/3 178/5/3
f 180/5/3 178/5/3 179/5/3
f 183/5/3 182/5/3 181/5/3
f 184/5/3 182/5/3 183/5/3
f 185/5/4 186/5/4 187/5/4
f 187/5/4 186/5/4 188/5/4
f 189/5/4 190/5/4 191/5/4
f 191/5/4 190/5/4 192/5/4
f 192/5/4 190/5/4 194/5/4
f 193/5/4 194/5/4 195/5/4
f 194/5/4 190/5/4 196/5/4
f 195/5/4 194/5/4 196/5/4
f 197/5/4 198/5/4 199/5/4
f 199/5/4 198/5/4 200/5/4
f 201/1/4 202/1/4 203/1/4
f 203/1/4 202/1/4 204/1/4
f 205/1/4 206/1/4 207/1/4
f 207/1/4 206/1/4 208/1/4
f 209/2/4 210/2/4 212/2/4
f 212/2/4 210/2/4 213/2/4
f 211/2/4 212/2/4 215/2/4
f 215/2/4 212/2/4 216/2/4
f 211/2/4 215/2/4 217/2/4
f 216/2/4 212/2/4 218/2/4
f 211/2/4 217/2/4 219/2/4
f 217/2/4 218/2/4 219/2/4
f 218/2/4 212/2/4 220/2/4
f 219/2/4 218/2/4 220/2/4
f 213/1/4 214/1/4 221/1/4
f 221/1/4 214/1/4 222/1/4
f 220/2/4 221/2/4 223/2/4
f 223/2/4 221/2/4 224/2/4
f 225/1/4 226/1/4 227/1/4
f 227/1/4 226/1/4 228/1/4
f 228/1/4 226/1/4 229/1/4
f 229/1/4 226/1/4 230/1/4
f 225/1/4 227/1/4 231/1/4
f 231/1/4 227/1/4 232/1/4
f 228/1/4 229/1/4 233/1/4
f 233/1/4 229/1/4 234/1/4
f 230/1/4 226/1/4 235/1/4
f 235/1/4 226/1/4 236/1/4
f 232/1/4 233/1/4 237/1/4
f 237/1/4 233/1/4 238/1/4
f 234/1/4 235/1/4 239/1/4
f 239/1/4 235/1/4 240/1/4
f 225/1/4 231/1/4 241/1/4
f 236/1/4 226/1/4 242/1/4
f 225/1/4 241/1/4 243/1/4
f 241/1/4 242/1/4 243/1/4
f 242/1/4 226/1/4 244/1/4
f 243/1/4 242/1/4 244/1/4
f 247/3/4 248/3/4 252/3/4
f 252/3/4 248/3/4 253/3/4
f 249/3/4 250/3/4 254/3/4
f 254/3/4 250/3/4 255/3/4
f 251/3/4 252/3/4 257/3/4
f 253/3/4 254/3/4 258/3/4
f 258/3/4 254/3/4 259/3/4
f 255/3/4 256/3/4 260/3/4
f 258/3/4 259/3/4 261/3/4
f 259/3/4 260/3/4 261/3/4
f 251/3/4 257/3/4 261/3/4
f 257/3/4 258/3/4 261/3/4
f 260/3/4 256/3/4 262/3/4
f 261/3/4 260/3/4 262/3/4
f 245/2/4 246/2/4 263/2/4
f 263/2/4 246/2/4 264/2/4
f 267/2/5 266/2/5 265/2/5
f 268/2/5 266/2/5 267/2/5
f 271/1/5 270/1/5 269/1/5
f 272/1/5 270/1/5 271/1/5
f 277/1/5 274/1/5 273/1/5
f 278/1/5 274/1/5 277/1/5
f 279/1/5 276/1/5 275/1/5
f 280/1/5 276/1/5 279/1/5
f 283/1/5 282/1/5 281/1/5
f 284/1/5 282/1/5 283/1/5
f 287/3/5 286/3/5 285/3/5
f 288/3/5 286/3/5 287/3/5
f 291/3/5 290/3/5 289/3/5
f 292/3/5 290/3/5 291/3/5
f 295/3/5 294/3/5 293/3/5
f 296/3/5 294/3/5 295/3/5
f 299/3/5 298/3/5 297/3/5
f 300/3/5 298/3/5 299/3/5
f 303/3/5 302/3/5 301/3/5
f 304/3/5 302/3/5 303/3/5
f 307/5/5 306/5/5 305/5/5
f 308/5/5 306/5/5 307/5/5
f 310/5/5 306/5/5 308/5/5
f 311/5/5 310/5/5 309/5/5
f 312/5/5 306/5/5 310/5/5
f 312/5/5 310/5/5 311/5/5
f 316/2/5 314/2/5 313/2/5
f 317/2/5 314/2/5 316/2/5
f 319/2/5 316/2/5 315/2/5
f 320/2/5 316/2/5 319/2/5
f 321/2/5 318/2/5 317/2/5
f 322/2/5 318/2/5 321/2/5
f 323/2/5 321/2/5 320/2/5
f 324/2/5 321/2/5 323/2/5
f 327/5/5 326/5/5 325/5/5
f 328/5/5 326/5/5 327/5/5
f 329/3/6 330/3/6 331/3/6
f 331/3/6 330/3/6 332/3/6
f 333/3/6 334/3/6 335/3/6
f 335/3/6 334/3/6 336/3/6
f 337/3/6 338/3/6 339/3/6
f 339/3/6 338/3/6 340/3/6
f 341/3/6 342/3/6 343/3/6
f 343/3/6 342/3/6 344/3/6
f 345/3/6 346/3/6 347/3/6
f 347/3/6 346/3/6 348/3/6
f 349/5/6 350/5/6 351/5/6
f 351/5/6 350/5/6 352/5/6
f 352/5/6 350/5/6 354/5/6
f 353/5/6 354/5/6 355/5/6
f 354/5/6 350/5/6 356/5/6
f 355/5/6 354/5/6 356/5/6
f 357/1/6 358/1/6 359/1/6
f 359/1/6 358/1/6 360/1/6
f 361/1/6 362/1/6 365/1/6
f 365/1/6 362/1/6 366/1/6
f 363/1/6 364/1/6 367/1/6
f 367/1/6 364/1/6 368/1/6
f 369/1/6 370/1/6 371/1/6
f 371/1/6 370/1/6 372/1/6
f 373/2/6 374/2/6 376/2/6
f 376/2/6 374/2/6 377/2/6
f 375/2/6 376/2/6 379/2/6
f 379/2/6 376/2/6 380/2/6
f 377/2/6 378/2/6 381/2/6
f 381/2/6 378/2/6 382/2/6
f 380/2/6 381/2/6 383/2/6
f 383/2/6 381/2/6 384/2/6
f 385/1/6 386/1/6 387/1/6
f 387/1/6 386/1/6 388/1/6
f 388/1/6 386/1/6 389/1/6
f 389/1/6 386/1/6 390/1/6
f 385/1/6 387/1/6 391/1/6
f 388/1/6 389/1/6 392/1/6
f 392/1/6 389/1/6 393/1/6
f 390/1/6 386/1/6 394/1/6
f 392/1/6 393/1/6 395/1/6
f 393/1/6 394/1/6 395/1/6
f 385/1/6 391/1/6 395/1/6
f 391/1/6 392/1/6 395/1/6
f 394/1/6 386/1/6 396/1/6
f 395/1/6 394/1/6 396/1/6
f 397/5/6 398/5/6 399/5/6
f 399/5/6 398/5/6 400/5/6
